<svg xmlns="http://www.w3.org/2000/svg" version="1.1" x="0px" y="0px" viewBox="0 0 438.6 438.3" xml:space="preserve"><style type="text/css">
	.st0{fill:#3151D8;}
</style><path class="st0" d="M200 436.8c0.4 0 0.7 0.3 0.7 0.7 0 0.4-0.3 0.7-0.7 0.7s-0.7-0.3-0.7-0.7C199.2 437.1 199.6 436.8 200 436.8M179.2 429.5c0.8 0 1.5 0.7 1.5 1.5 0 0.8-0.7 1.5-1.5 1.5 -0.8 0-1.5-0.7-1.5-1.5C177.7 430.2 178.4 429.5 179.2 429.5M159.3 420.2c1.2 0 2.2 1 2.2 2.2 0 1.2-1 2.2-2.2 2.2 -1.2 0-2.2-1-2.2-2.2C157 421.2 158 420.2 159.3 420.2M140.3 408.8c1.7 0 3 1.3 3 3 0 1.7-1.3 3-3 3 -1.7 0-3-1.3-3-3C137.3 410.1 138.7 408.8 140.3 408.8M122.6 395.5c2.1 0 3.7 1.7 3.7 3.7 0 2.1-1.7 3.7-3.7 3.7 -2.1 0-3.7-1.7-3.7-3.7C118.9 397.1 120.6 395.5 122.6 395.5M106.3 380.3c2.5 0 4.5 2 4.5 4.5 0 2.5-2 4.5-4.5 4.5s-4.5-2-4.5-4.5C101.8 382.3 103.9 380.3 106.3 380.3M91.6 363.6c2.9 0 5.2 2.3 5.2 5.2 0 2.9-2.3 5.2-5.2 5.2 -2.9 0-5.2-2.3-5.2-5.2C86.4 365.9 88.7 363.6 91.6 363.6M78.7 345.3c3.3 0 6 2.7 6 6 0 3.3-2.7 6-6 6 -3.3 0-6-2.7-6-6C72.8 348 75.4 345.3 78.7 345.3M68.2 325.6c3.7 0 6.7 3 6.7 6.7 0 3.7-3 6.7-6.7 6.7 -3.7 0-6.7-3-6.7-6.7C61.4 328.6 64.4 325.6 68.2 325.6M60.2 304.6c4.1 0 7.5 3.4 7.5 7.5 0 4.1-3.4 7.5-7.5 7.5 -4.1 0-7.5-3.4-7.5-7.5C52.7 308 56 304.6 60.2 304.6M54.9 282.8c4.5 0 8.2 3.7 8.2 8.2 0 4.5-3.7 8.2-8.2 8.2 -4.5 0-8.2-3.7-8.2-8.2C46.7 286.4 50.4 282.8 54.9 282.8M52.5 260.4c5 0 9 4 9 9s-4 9-9 9c-5 0-9-4-9-9S47.5 260.4 52.5 260.4M52.9 237.9c5.4 0 9.7 4.4 9.7 9.7 0 5.4-4.4 9.7-9.7 9.7 -5.4 0-9.7-4.4-9.7-9.7C43.1 242.3 47.5 237.9 52.9 237.9M56.1 215.7c5.8 0 10.5 4.7 10.5 10.5 0 5.8-4.7 10.5-10.5 10.5 -5.8 0-10.5-4.7-10.5-10.5C45.6 220.4 50.3 215.7 56.1 215.7M360.2 386.7c0.4 0 0.7 0.3 0.7 0.7 0 0.4-0.3 0.7-0.7 0.7 -0.4 0-0.7-0.3-0.7-0.7C359.5 387 359.8 386.7 360.2 386.7M341 396.2c-0.7 0-1.3 0.6-1.3 1.3 0 0.7 0.6 1.3 1.3 1.3 0.7 0 1.3-0.6 1.3-1.3C342.3 396.7 341.7 396.2 341 396.2M320.8 403.5c1.1 0 2 0.9 2 2 0 1.1-0.9 2-2 2 -1.1 0-2-0.9-2-2C318.8 404.4 319.7 403.5 320.8 403.5M299.8 408.7c1.5 0 2.6 1.2 2.6 2.6 0 1.5-1.2 2.6-2.6 2.6 -1.5 0-2.6-1.2-2.6-2.6C297.2 409.9 298.4 408.7 299.8 408.7M278.4 411.7c1.8 0 3.3 1.5 3.3 3.3 0 1.8-1.5 3.3-3.3 3.3 -1.8 0-3.3-1.5-3.3-3.3C275.1 413.2 276.6 411.7 278.4 411.7M256.7 412.4c2.2 0 4 1.8 4 4 0 2.2-1.8 4-4 4 -2.2 0-4-1.8-4-4C252.7 414.2 254.5 412.4 256.7 412.4M235 410.8c2.6 0 4.6 2.1 4.6 4.6 0 2.6-2.1 4.6-4.6 4.6 -2.6 0-4.6-2.1-4.6-4.6C230.4 412.9 232.4 410.8 235 410.8M213.5 406.9c2.9 0 5.3 2.4 5.3 5.3 0 2.9-2.4 5.3-5.3 5.3 -2.9 0-5.3-2.4-5.3-5.3C208.2 409.2 210.6 406.9 213.5 406.9M192.6 400.2c3.3 0 6 2.7 6 6 0 3.3-2.7 6-6 6s-6-2.7-6-6C186.6 402.9 189.3 400.2 192.6 400.2M172.6 390.9c3.7 0 6.6 3 6.6 6.6 0 3.7-3 6.6-6.6 6.6 -3.7 0-6.6-3-6.6-6.6C166 393.9 169 390.9 172.6 390.9M154 379.1c4 0 7.3 3.3 7.3 7.3 0 4-3.3 7.3-7.3 7.3s-7.3-3.3-7.3-7.3C146.7 382.3 150 379.1 154 379.1M137 364.9c4.4 0 7.9 3.6 7.9 7.9 0 4.4-3.6 7.9-7.9 7.9s-7.9-3.6-7.9-7.9C129.1 368.4 132.6 364.9 137 364.9M121.9 348.6c4.8 0 8.6 3.8 8.6 8.6s-3.9 8.6-8.6 8.6 -8.6-3.8-8.6-8.6S117.2 348.6 121.9 348.6M109 330.4c5.1 0 9.3 4.1 9.3 9.3 0 5.1-4.1 9.3-9.3 9.3 -5.1 0-9.3-4.1-9.3-9.3C99.8 334.6 103.9 330.4 109 330.4M98.5 310.8c5.5 0 9.9 4.4 9.9 9.9 0 5.5-4.4 9.9-9.9 9.9s-9.9-4.4-9.9-9.9C88.6 315.2 93 310.8 98.5 310.8M438 238c0.3 0 0.6 0.3 0.6 0.6 0 0.3-0.3 0.6-0.6 0.6 -0.3 0-0.6-0.3-0.6-0.6C437.5 238.3 437.7 238 438 238M431.6 258.2c0.7 0 1.2 0.5 1.2 1.2s-0.5 1.2-1.2 1.2c-0.7 0-1.2-0.5-1.2-1.2S430.9 258.2 431.6 258.2M423 277.6c-1 0-1.8 0.8-1.8 1.8 0 1 0.8 1.8 1.8 1.8 1 0 1.8-0.8 1.8-1.8C424.7 278.4 424 277.6 423 277.6M412.3 295.9c1.3 0 2.4 1.1 2.4 2.4 0 1.3-1.1 2.4-2.4 2.4s-2.4-1.1-2.4-2.4C410 297 411 295.9 412.3 295.9M399.7 313c1.6 0 3 1.3 3 3 0 1.6-1.3 3-3 3 -1.6 0-3-1.3-3-3C396.8 314.4 398.1 313 399.7 313M385.3 328.7c2 0 3.6 1.6 3.6 3.6 0 2-1.6 3.6-3.6 3.6 -2 0-3.6-1.6-3.6-3.6C381.8 330.3 383.4 328.7 385.3 328.7M369.3 342.9c2.3 0 4.1 1.9 4.1 4.1 0 2.3-1.9 4.1-4.1 4.1 -2.3 0-4.1-1.9-4.1-4.1C365.2 344.7 367 342.9 369.3 342.9M351.8 355.2c2.6 0 4.7 2.1 4.7 4.7 0 2.6-2.1 4.7-4.7 4.7 -2.6 0-4.7-2.1-4.7-4.7C347.1 357.3 349.2 355.2 351.8 355.2M332.8 365.1c-3 0-5.3 2.4-5.3 5.3 0 2.9 2.4 5.3 5.3 5.3 2.9 0 5.3-2.4 5.3-5.3C338.2 367.5 335.8 365.1 332.8 365.1M312.6 372.5c3.3 0 5.9 2.7 5.9 5.9 0 3.3-2.7 5.9-5.9 5.9 -3.3 0-5.9-2.7-5.9-5.9C306.7 375.2 309.3 372.5 312.6 372.5M291.5 377.2c3.6 0 6.5 2.9 6.5 6.5 0 3.6-2.9 6.5-6.5 6.5s-6.5-2.9-6.5-6.5C285 380.1 287.9 377.2 291.5 377.2M269.9 379c3.9 0 7.1 3.2 7.1 7.1s-3.2 7.1-7.1 7.1c-3.9 0-7.1-3.2-7.1-7.1S266 379 269.9 379M248.2 378c4.3 0 7.7 3.4 7.7 7.7 0 4.3-3.4 7.7-7.7 7.7 -4.3 0-7.7-3.4-7.7-7.7C240.5 381.5 244 378 248.2 378M226.7 374.2c4.6 0 8.3 3.7 8.3 8.3 0 4.6-3.7 8.3-8.3 8.3 -4.6 0-8.3-3.7-8.3-8.3C218.4 377.9 222.1 374.2 226.7 374.2M205.8 367.6c4.9 0 8.9 4 8.9 8.9 0 4.9-4 8.9-8.9 8.9 -4.9 0-8.9-4-8.9-8.9C196.9 371.6 200.9 367.6 205.8 367.6M185.9 358.4c5.2 0 9.5 4.2 9.5 9.5 0 5.2-4.2 9.5-9.5 9.5 -5.2 0-9.5-4.2-9.5-9.5C176.4 362.6 180.7 358.4 185.9 358.4M387.9 77.8c0.3 0 0.6 0.3 0.6 0.6 0 0.3-0.3 0.6-0.6 0.6 -0.3 0-0.6-0.3-0.6-0.6C387.3 78.1 387.6 77.8 387.9 77.8M398 96.5c0.7 0 1.2 0.5 1.2 1.2 0 0.7-0.5 1.2-1.2 1.2s-1.2-0.5-1.2-1.2C396.8 97 397.3 96.5 398 96.5M406 116.1c1 0 1.8 0.8 1.8 1.8 0 1-0.8 1.8-1.8 1.8 -1 0-1.8-0.8-1.8-1.8C404.3 116.9 405.1 116.1 406 116.1M411.9 136.4c1.3 0 2.4 1.1 2.4 2.4 0 1.3-1.1 2.4-2.4 2.4 -1.3 0-2.4-1.1-2.4-2.4C409.5 137.5 410.6 136.4 411.9 136.4M415.5 157.3c1.6 0 3 1.3 3 3 0 1.6-1.3 3-3 3 -1.6 0-3-1.3-3-3C412.6 158.6 413.9 157.3 415.5 157.3M416.9 178.4c2 0 3.6 1.6 3.6 3.6 0 2-1.6 3.6-3.6 3.6 -2 0-3.6-1.6-3.6-3.6C413.3 180 414.9 178.4 416.9 178.4M415.9 199.5c-2.3 0-4.1 1.9-4.1 4.1 0 2.3 1.9 4.1 4.1 4.1 2.3 0 4.2-1.9 4.2-4.1C420.1 201.4 418.2 199.5 415.9 199.5M412.7 220.4c2.6 0 4.7 2.1 4.7 4.7 0 2.6-2.1 4.7-4.7 4.7 -2.6 0-4.7-2.1-4.7-4.7C407.9 222.5 410.1 220.4 412.7 220.4M406.7 240.7c2.9 0 5.3 2.4 5.3 5.3 0 2.9-2.4 5.3-5.3 5.3 -2.9 0-5.3-2.4-5.3-5.3C401.4 243.1 403.8 240.7 406.7 240.7M398.1 260.1c3.3 0 5.9 2.7 5.9 5.9 0 3.3-2.7 5.9-5.9 5.9 -3.3 0-5.9-2.7-5.9-5.9C392.2 262.7 394.8 260.1 398.1 260.1M386.9 278.1c3.6 0 6.5 2.9 6.5 6.5 0 3.6-2.9 6.5-6.5 6.5 -3.6 0-6.5-2.9-6.5-6.5C380.4 281 383.3 278.1 386.9 278.1M373.3 294.5c3.9 0 7.1 3.2 7.1 7.1 0 3.9-3.2 7.1-7.1 7.1 -3.9 0-7.1-3.2-7.1-7.1C366.2 297.7 369.4 294.5 373.3 294.5M357.7 309c4.3 0 7.7 3.4 7.7 7.7s-3.4 7.7-7.7 7.7c-4.3 0-7.7-3.4-7.7-7.7S353.4 309 357.7 309M340.2 321.3c4.6 0 8.3 3.7 8.3 8.3s-3.7 8.3-8.3 8.3c-4.6 0-8.3-3.7-8.3-8.3S335.6 321.3 340.2 321.3M321.2 331.2c4.9 0 8.9 4 8.9 8.9 0 4.9-4 8.9-8.9 8.9 -4.9 0-8.9-4-8.9-8.9C312.3 335.2 316.3 331.2 321.2 331.2M301 338.6c5.2 0 9.5 4.2 9.5 9.5 0 5.2-4.2 9.5-9.5 9.5 -5.2 0-9.5-4.2-9.5-9.5C291.5 342.9 295.7 338.6 301 338.6M239.2 0c0.3 0 0.6 0.3 0.6 0.6 0 0.3-0.3 0.6-0.6 0.6 -0.3 0-0.6-0.3-0.6-0.6C238.6 0.3 238.8 0 239.2 0M259.9 5.9c0.7 0 1.2 0.5 1.2 1.2s-0.5 1.2-1.2 1.2c-0.7 0-1.2-0.5-1.2-1.2S259.3 5.9 259.9 5.9M279.9 13.9c1 0 1.8 0.8 1.8 1.8 0 1-0.8 1.8-1.8 1.8 -1 0-1.8-0.8-1.8-1.8C278.1 14.7 278.9 13.9 279.9 13.9M298.8 23.9c1.3 0 2.4 1.1 2.4 2.4 0 1.3-1.1 2.4-2.4 2.4 -1.3 0-2.4-1.1-2.4-2.4C296.5 25 297.5 23.9 298.8 23.9M316.5 35.9c1.6 0 3 1.3 3 3 0 1.6-1.3 3-3 3 -1.6 0-3-1.3-3-3C313.6 37.3 314.9 35.9 316.5 35.9M332.8 49.7c2 0 3.6 1.6 3.6 3.6 0 2-1.6 3.6-3.6 3.6 -2 0-3.6-1.6-3.6-3.6C329.3 51.3 330.9 49.7 332.8 49.7M347.5 73.5c2.3 0 4.1-1.9 4.1-4.1 0-2.3-1.9-4.1-4.1-4.1 -2.3 0-4.2 1.9-4.2 4.1C343.4 71.6 345.2 73.5 347.5 73.5M360.4 91.5c2.6 0 4.7-2.1 4.7-4.7 0-2.6-2.1-4.7-4.7-4.7 -2.6 0-4.7 2.1-4.7 4.7C355.7 89.4 357.8 91.5 360.4 91.5M371 100.5c2.9 0 5.3 2.4 5.3 5.3 0 2.9-2.4 5.3-5.3 5.3 -2.9 0-5.3-2.4-5.3-5.3C365.7 102.9 368.1 100.5 371 100.5M379 120.1c3.3 0 5.9 2.7 5.9 5.9s-2.7 5.9-5.9 5.9c-3.3 0-5.9-2.7-5.9-5.9S375.7 120.1 379 120.1M384.2 140.6c3.6 0 6.5 2.9 6.5 6.5s-2.9 6.5-6.5 6.5 -6.5-2.9-6.5-6.5S380.6 140.6 384.2 140.6M386.7 161.6c3.9 0 7.1 3.2 7.1 7.1 0 3.9-3.2 7.1-7.1 7.1 -3.9 0-7.1-3.2-7.1-7.1C379.6 164.8 382.7 161.6 386.7 161.6M386.3 182.7c4.3 0 7.7 3.5 7.7 7.7 0 4.3-3.4 7.7-7.7 7.7 -4.3 0-7.7-3.4-7.7-7.7C378.6 186.2 382 182.7 386.3 182.7M383 203.6c4.6 0 8.3 3.7 8.3 8.3 0 4.6-3.7 8.3-8.3 8.3 -4.6 0-8.3-3.7-8.3-8.3C374.8 207.3 378.5 203.6 383 203.6M377.1 223.9c4.9 0 8.9 4 8.9 8.9 0 4.9-4 8.9-8.9 8.9 -4.9 0-8.9-4-8.9-8.9C368.2 227.9 372.1 223.9 377.1 223.9M368.4 243.3c5.2 0 9.5 4.2 9.5 9.5 0 5.2-4.2 9.5-9.5 9.5 -5.2 0-9.5-4.2-9.5-9.5C358.9 247.5 363.1 243.3 368.4 243.3M78.9 50.1c0.3 0 0.6 0.3 0.6 0.6 0 0.3-0.3 0.6-0.6 0.6 -0.3 0-0.6-0.3-0.6-0.6C78.4 50.4 78.6 50.1 78.9 50.1M98.2 39.4c0.7 0 1.2 0.5 1.2 1.2 0 0.7-0.5 1.2-1.2 1.2 -0.7 0-1.2-0.5-1.2-1.2C97 40 97.5 39.4 98.2 39.4M118.4 30.8c1 0 1.8 0.8 1.8 1.8 0 1-0.8 1.8-1.8 1.8 -1 0-1.8-0.8-1.8-1.8C116.6 31.6 117.4 30.8 118.4 30.8M139.3 24.4c1.3 0 2.4 1.1 2.4 2.4 0 1.3-1.1 2.4-2.4 2.4 -1.3 0-2.4-1.1-2.4-2.4C136.9 25.4 138 24.4 139.3 24.4M160.7 20.1c1.6 0 3 1.3 3 3 0 1.6-1.3 3-3 3 -1.6 0-3-1.3-3-3C157.8 21.5 159.1 20.1 160.7 20.1M182.4 18.2c2 0 3.6 1.6 3.6 3.6 0 2-1.6 3.6-3.6 3.6 -2 0-3.6-1.6-3.6-3.6C178.9 19.8 180.5 18.2 182.4 18.2M204.2 18.6c2.3 0 4.1 1.9 4.1 4.1 0 2.3-1.9 4.1-4.1 4.1 -2.3 0-4.1-1.9-4.1-4.1C200 20.4 201.9 18.6 204.2 18.6M225.6 21.2c2.6 0 4.7 2.1 4.7 4.7 0 2.6-2.1 4.7-4.7 4.7 -2.6 0-4.7-2.1-4.7-4.7C220.9 23.3 223 21.2 225.6 21.2M246.6 26.6c2.9 0 5.3 2.4 5.3 5.3s-2.4 5.3-5.3 5.3c-2.9 0-5.3-2.4-5.3-5.3S243.6 26.6 246.6 26.6M266.5 34.6c3.3 0 5.9 2.7 5.9 5.9s-2.7 5.9-5.9 5.9c-3.3 0-5.9-2.7-5.9-5.9S263.2 34.6 266.5 34.6M285.1 45.2c3.6 0 6.5 2.9 6.5 6.5 0 3.6-2.9 6.5-6.5 6.5 -3.6 0-6.5-2.9-6.5-6.5C278.6 48.2 281.5 45.2 285.1 45.2M302.1 72.4c3.9 0 7.1-3.2 7.1-7.1 0-3.9-3.2-7.1-7.1-7.1 -3.9 0-7.1 3.2-7.1 7.1C295 69.2 298.2 72.4 302.1 72.4M317.2 73.2c4.3 0 7.7 3.4 7.7 7.7 0 4.3-3.4 7.7-7.7 7.7 -4.3 0-7.7-3.4-7.7-7.7C309.5 76.7 313 73.2 317.2 73.2M330.1 90.1c4.6 0 8.3 3.7 8.3 8.3 0 4.6-3.7 8.3-8.3 8.3 -4.6 0-8.3-3.7-8.3-8.3C321.8 93.8 325.5 90.1 330.1 90.1M340.7 108.5c4.9 0 8.9 4 8.9 8.9 0 4.9-4 8.9-8.9 8.9 -4.9 0-8.9-4-8.9-8.9C331.8 112.5 335.7 108.5 340.7 108.5M348.6 128.2c5.2 0 9.5 4.2 9.5 9.5 0 5.2-4.2 9.5-9.5 9.5 -5.2 0-9.5-4.2-9.5-9.5C339.1 132.4 343.4 128.2 348.6 128.2M353.8 148.7c5.6 0 10.1 4.5 10.1 10.1s-4.5 10.1-10.1 10.1c-5.6 0-10.1-4.5-10.1-10.1S348.3 148.7 353.8 148.7M1.1 198.4c0.6 0 1.1 0.5 1.1 1.1 0 0.6-0.5 1.1-1.1 1.1 -0.6 0-1.1-0.5-1.1-1.1C0 198.9 0.5 198.4 1.1 198.4M7.6 176.5c1.2 0 2.2 1 2.2 2.2 0 1.2-1 2.2-2.2 2.2s-2.2-1-2.2-2.2C5.3 177.5 6.3 176.5 7.6 176.5M16.2 155.4c1.9 0 3.4 1.5 3.4 3.4s-1.5 3.4-3.4 3.4 -3.4-1.5-3.4-3.4S14.3 155.4 16.2 155.4M26.8 135.4c2.5 0 4.5 2 4.5 4.5 0 2.5-2 4.5-4.5 4.5 -2.5 0-4.5-2-4.5-4.5C22.4 137.4 24.4 135.4 26.8 135.4M39.4 116.5c3.1 0 5.6 2.5 5.6 5.6 0 3.1-2.5 5.6-5.6 5.6 -3.1 0-5.6-2.5-5.6-5.6C33.8 119 36.3 116.5 39.4 116.5M53.8 99.1c3.7 0 6.7 3 6.7 6.7 0 3.7-3 6.7-6.7 6.7 -3.7 0-6.7-3-6.7-6.7C47.1 102.1 50.1 99.1 53.8 99.1M69.8 83.3c4.3 0 7.8 3.5 7.8 7.8 0 4.3-3.5 7.8-7.8 7.8 -4.3 0-7.8-3.5-7.8-7.8C62 86.8 65.5 83.3 69.8 83.3M87.3 69.3c4.9 0 8.9 4 8.9 8.9 0 4.9-4 8.9-8.9 8.9s-8.9-4-8.9-8.9C78.4 73.3 82.4 69.3 87.3 69.3M106.2 57.4c5.6 0 10.1 4.5 10.1 10.1 0 5.6-4.5 10.1-10.1 10.1 -5.6 0-10.1-4.5-10.1-10.1C96.2 61.9 100.7 57.4 106.2 57.4M126.3 70.5c5.6 0 10.2-4.1 11-9.5 2.2 3.2 5.9 5.2 10.1 5.2 4.7 0 8.9-2.7 10.9-6.6 2.4 3.2 6.3 5.3 10.7 5.3 3.9 0 7.4-1.7 9.9-4.4 2.6 3.7 6.9 6.1 11.8 6.1 3.1 0 5.9-1 8.3-2.6 0.5 0.9 1.2 1.7 1.9 2.4 -3.7 0.4-7 2-9.5 4.4 -2.8-2.5-6.4-4.1-10.5-4.1 -5.2 0-9.7 2.5-12.6 6.4 -2.5-1.9-5.6-3.1-9-3.1 -5.9 0-11 3.5-13.3 8.5 -2.2-1.5-4.9-2.4-7.8-2.4 -6.6 0-12.1 4.6-13.5 10.7 -2-1.2-4.3-1.9-6.7-1.9 -7.2 0-13 5.8-13 13 0 0 0 0 0 0.1 -1.8-1-3.8-1.6-6-1.6 -6.7 0-12.1 5.4-12.1 12.1 0 1.2 0.2 2.3 0.5 3.4 -1.7-1-3.7-1.7-5.8-1.7 -6.2 0-11.2 5-11.2 11.2 0 6.2 5 11.2 11.2 11.2 6.2 0 11.2-5 11.2-11.2 0-1-0.2-1.9-0.4-2.8 1.9 1.2 4.2 2 6.6 2 6.5 0 11.9-5.2 12.1-11.7 2 1.3 4.4 2 6.9 2 0.2 0 0.5 0 0.7 0 -2.7 2.5-4.5 6-4.8 9.9 -0.9-0.2-1.7-0.3-2.6-0.3 -7.9 0-14.2 6.4-14.2 14.2 0 0.6 0 1.1 0.1 1.7 -0.5-0.1-1-0.1-1.6-0.1 -7.4 0-13.5 6-13.5 13.5 0 1.5 0.3 2.9 0.7 4.3 -0.3 0-0.5 0-0.8 0 -7 0-12.7 5.7-12.7 12.7 0 2.4 0.7 4.7 1.9 6.6 -0.1 0-0.2 0-0.4 0 -6.6 0-12 5.4-12 12 0 3.5 1.5 6.6 3.8 8.8 -0.2 0-0.3-0.1-0.5-0.1 -6.2 0-11.2 5-11.2 11.2 0 6.2 5 11.2 11.2 11.2 6.2 0 11.2-5 11.2-11.2 0-3.1-1.3-6-3.3-8 0.3 0 0.5 0 0.8 0 3.5 0 6.6-1.5 8.8-3.9 0 0.1 0 0.3 0 0.4 0 3.1 1 5.9 2.7 8.2 -5.1 1.8-8.8 6.7-8.8 12.4 0 4 1.8 7.6 4.6 10.1 -4.3 2-7.3 6.3-7.3 11.4 0 4.8 2.7 9 6.7 11.1 -3.9 2-6.5 6-6.5 10.6 0 5.7 4 10.4 9.3 11.6 -3.7 1.9-6.2 5.6-6.2 10 0 6.2 5 11.2 11.2 11.2 0.7 0 1.4-0.1 2.1-0.2 -4.3 1.4-7.4 5.3-7.4 10 0 5.8 4.7 10.6 10.6 10.6 5.8 0 10.6-4.7 10.6-10.6 0-5.8-4.7-10.6-10.6-10.6 -0.7 0-1.3 0.1-1.9 0.2 4.6-1.4 7.9-5.6 7.9-10.7 0-0.3-0.1-0.5-0.1-0.8 1.7 1.9 4 3.3 6.6 3.9 -1.8 2.2-3 5-3 8 0 6.9 5.6 12.4 12.4 12.4 0.1 0 0.2 0 0.3 0 -1.4 2-2.3 4.3-2.3 6.9 0 6.5 5.3 11.8 11.8 11.8 1.2 0 2.3-0.2 3.4-0.5 -1.2 1.8-1.9 3.9-1.9 6.2 0 6.2 5 11.3 11.3 11.3 2.7 0 5.1-1 7-2.5 -1.6 1.9-2.6 4.3-2.6 6.9 0 5.9 4.8 10.7 10.7 10.7 5.9 0 10.7-4.8 10.7-10.7 0-2.9-1.1-5.4-3-7.3 1.4 0 2.8-0.3 4.1-0.7 0 0 0 0.1 0 0.2 0 5.1 2.9 9.4 7.1 11.6 -0.6-0.1-1.3-0.2-1.9-0.2 -5.6 0-10.1 4.5-10.1 10.1 0 5.6 4.5 10.1 10.1 10.1s10.1-4.5 10.1-10.1c0-3.8-2.2-7.1-5.3-8.8 1 0.2 2 0.4 3.1 0.4 2.5 0 4.9-0.7 6.9-2 0.5 6.4 5.9 11.4 12.4 11.4 3.5 0 6.7-1.5 9-3.8 0.9 5.6 5.8 10 11.7 10 4.5 0 8.4-2.5 10.4-6.3 1 5.1 5.6 9 11 9 5.8 0 10.5-4.4 11.1-10.1 0.4 5.5 4.9 9.9 10.6 9.9 5.9 0 10.7-4.8 10.7-10.7 0-5.8-4.6-10.5-10.4-10.6 1-1 1.8-2.2 2.4-3.4 2.4 2.4 5.7 3.9 9.3 3.9 1.4 0 2.7-0.2 4-0.6 -2.7 1.8-4.4 4.9-4.4 8.3 0 5.6 4.5 10.1 10.1 10.1 5.6 0 10.1-4.5 10.1-10.1 0-5.6-4.5-10.1-10.1-10.1 -1 0-2 0.2-2.9 0.5 3-1.8 5.2-4.7 6-8.2 2.2 1.8 5 3 8 3 6.9 0 12.4-5.6 12.4-12.4 0-0.1 0-0.2 0-0.3 2 1.4 4.3 2.3 6.9 2.3 6.5 0 11.8-5.3 11.8-11.9 0-1.2-0.2-2.3-0.5-3.4 1.8 1.2 3.9 1.9 6.2 1.9 6.2 0 11.3-5 11.3-11.3 0-2.7-1-5.1-2.5-7 1.9 1.6 4.3 2.6 6.9 2.6 5.9 0 10.7-4.8 10.7-10.7 0-5.9-4.8-10.7-10.7-10.7 -2.9 0-5.4 1.1-7.4 3 0-1.4-0.3-2.8-0.7-4.1 0.1 0 0.1 0 0.1 0 5.1 0 9.4-2.9 11.6-7.1 -0.1 0.6-0.2 1.3-0.2 1.9 0 5.6 4.5 10.1 10.1 10.1 5.6 0 10.1-4.5 10.1-10.1 0-5.6-4.5-10.1-10.1-10.1 -3.8 0-7.1 2.2-8.8 5.3 0.2-1 0.4-2 0.4-3.1 0-2.5-0.7-4.9-2-6.9 6.4-0.5 11.4-5.9 11.4-12.4 0-3.5-1.5-6.7-3.8-9 5.7-0.9 10-5.8 10-11.7 0-4.5-2.5-8.4-6.3-10.4 5.1-1 9-5.6 9-11 0-5.8-4.4-10.5-10.1-11.1 5.5-0.4 9.9-5 9.9-10.6 0-5.9-4.8-10.7-10.7-10.7 -5.9 0-10.7 4.8-10.7 10.7 0 5.5 4.2 9.9 9.5 10.5 -5.9 0.4-10.5 5.2-10.5 11.2 0 4.2 2.4 7.9 5.8 9.8 -5.6 1-9.8 5.8-9.8 11.7 0 3.3 1.3 6.2 3.5 8.4 -6.1 0.8-10.8 6-10.8 12.3 0 2.3 0.6 4.4 1.7 6.3 -6.9 0.4-12.3 6-12.3 13 0 1.3 0.2 2.6 0.6 3.8 -0.2 0-0.4 0-0.6 0 -7.5 0-13.6 6.1-13.6 13.6 0 0.3 0 0.6 0 1 -0.7-0.1-1.4-0.2-2.1-0.2 -7.2 0-13.1 5.3-14.1 12.2 -1.2-0.3-2.5-0.5-3.9-0.5 -5.9 0-11 3.5-13.4 8.6 -2.9-2.3-6.7-3.4-10.6-2.7 -4.3 0.8-7.8 3.7-9.4 7.5 -2.8-3-7-4.7-11.4-4.1 -4.3 0.6-7.8 3.2-9.7 6.7 -2.4-3-6-4.8-10.1-4.9 -3.8 0-7.2 1.5-9.6 4.1 -1.5-3.3-4.4-6-8.2-7.1 -4-1.2-8.1-0.4-11.3 1.8 -0.8-3.7-3.3-7.1-7.1-8.9 -3.6-1.7-7.6-1.7-11-0.1 -0.1-3.7-1.8-7.3-4.9-9.8 -3-2.4-6.7-3.2-10.2-2.7 0.8-3.6 0.2-7.6-2.3-10.8 -2.5-3.4-6.4-5.2-10.3-5.2 1.5-3.5 1.5-7.6-0.4-11.3 -1.7-3.3-4.7-5.6-8-6.5 2.1-2.7 3.1-6.3 2.5-10 -0.7-4-3.1-7.4-6.4-9.2 3.2-2.4 5.2-6.2 5.1-10.5 0-3.9-1.8-7.3-4.5-9.7 3.3-1.7 5.9-4.7 6.8-8.5 1-3.8 0.1-7.7-2-10.7 3.4-0.8 6.5-2.9 8.4-6.2 2-3.5 2.3-7.5 1-11 3.8 0.2 7.7-1.3 10.4-4.3 2.7-3 3.7-6.9 3.2-10.7 3.5 0.9 7.4 0.3 10.5-2 3.3-2.3 5.2-5.8 5.6-9.5 3.3 1.7 7.4 2 11.1 0.5 3.5-1.5 6-4.3 7.2-7.6 2.6 2.4 6.2 3.7 10.1 3.3h0c4.2-0.4 7.7-2.7 9.7-6 2.2 3.1 5.7 5.2 9.7 5.5 3.9 0.3 7.5-1.1 10.1-3.7 1.4 3.4 4.2 6.3 8 7.5 3.9 1.3 8 0.6 11.3-1.5 0.7 3.7 3 7.1 6.6 9.1h0c3 1.6 6.3 2 9.3 1.2 0.3 0.5 0.7 1 1.1 1.4 0.2 2.8 1.3 5.6 3.3 7.8 0.1 0.1 0.2 0.2 0.3 0.3 6.6 7 22.1 23.9 19.2 46.5 -0.7 5.6 2.4 8.5 6.5 4.1 24.5-26.5 20.7-58.9 20.2-62.7 -0.1-2.5-0.7-4.8-1.6-7 0.3-1.4 0.4-2.8 0.4-4.2 0-6.8-3.3-12.9-8.3-16.7 0.2-1.2 0.4-2.5 0.4-3.8 0-8.5-5.2-15.7-12.6-18.7 -0.2-9.5-7.2-17.2-16.3-18.6 -1.6-8.5-9-15-18-15 -0.3 0-0.7 0-1 0 -2.3-7-8.8-12-16.5-12 -1.5 0-3 0.2-4.3 0.6 -2.6-5.7-8.3-9.6-14.9-9.6 -2.6 0-5 0.6-7.2 1.7 -2.7-4.6-7.7-7.7-13.4-7.7 -3.7 0-7 1.3-9.7 3.4 -2.6-3.6-6.9-6-11.8-6 -4.6 0-8.7 2.1-11.3 5.4 -2.5-3-6.2-5-10.4-5 -5.4 0-10.1 3.2-12.2 7.9 -2.3-2.7-5.6-4.4-9.4-4.4 -6.3 0-11.5 4.8-12.2 10.9 -2-2.7-5.2-4.4-8.8-4.4 -6.2 0-11.2 5-11.2 11.2C115.2 65.5 120.2 70.5 126.3 70.5M51.3 358.8c0.5 0 0.9 0.4 0.9 0.9 0 0.5-0.4 0.9-0.9 0.9 -0.5 0-0.9-0.4-0.9-0.9C50.4 359.2 50.8 358.8 51.3 358.8M41.2 338.7c1 0 1.7 0.8 1.7 1.7 0 1-0.8 1.7-1.7 1.7 -1 0-1.7-0.8-1.7-1.7C39.4 339.5 40.2 338.7 41.2 338.7M33.1 317.6c1.4 0 2.6 1.2 2.6 2.6 0 1.4-1.2 2.6-2.6 2.6 -1.4 0-2.6-1.2-2.6-2.6C30.5 318.8 31.7 317.6 33.1 317.6M27.3 295.9c1.9 0 3.5 1.5 3.5 3.5 0 1.9-1.5 3.5-3.5 3.5 -1.9 0-3.5-1.5-3.5-3.5C23.8 297.4 25.3 295.9 27.3 295.9M23.6 273.6c2.4 0 4.3 1.9 4.3 4.3 0 2.4-1.9 4.3-4.3 4.3 -2.4 0-4.3-1.9-4.3-4.3C19.3 275.5 21.2 273.6 23.6 273.6M22.3 251c2.9 0 5.2 2.3 5.2 5.2 0 2.9-2.3 5.2-5.2 5.2 -2.9 0-5.2-2.3-5.2-5.2C17.1 253.3 19.4 251 22.3 251M23.2 228.4c3.3 0 6.1 2.7 6.1 6.1 0 3.3-2.7 6.1-6.1 6.1 -3.3 0-6.1-2.7-6.1-6.1C17.2 231.1 19.9 228.4 23.2 228.4M26.5 206.1c3.8 0 6.9 3.1 6.9 6.9 0 3.8-3.1 6.9-6.9 6.9 -3.8 0-6.9-3.1-6.9-6.9C19.6 209.2 22.7 206.1 26.5 206.1M32.4 184.3c4.3 0 7.8 3.5 7.8 7.8 0 4.3-3.5 7.8-7.8 7.8 -4.3 0-7.8-3.5-7.8-7.8C24.7 187.8 28.1 184.3 32.4 184.3M41.1 163.5c4.8 0 8.6 3.9 8.6 8.7 0 4.8-3.9 8.6-8.6 8.6 -4.8 0-8.7-3.9-8.7-8.6C32.4 167.3 36.3 163.5 41.1 163.5M52.3 144c5.3 0 9.5 4.3 9.5 9.5 0 5.3-4.3 9.5-9.5 9.5s-9.5-4.3-9.5-9.5C42.8 148.2 47 144 52.3 144M65.8 126.1c5.7 0 10.4 4.6 10.4 10.4 0 5.7-4.6 10.4-10.4 10.4 -5.7 0-10.4-4.6-10.4-10.4C55.4 130.8 60.1 126.1 65.8 126.1"/></svg>